<svg xmlns="http://www.w3.org/2000/svg" width="71.506" height="71.506" viewBox="0 0 71.506 71.506">
  <path id="Path_28" data-name="Path 28" d="M367.617,1639.124h-1.676v-4.189a1.4,1.4,0,0,0-1.4-1.4h-.838v-2.212a3.66,3.66,0,0,0-2.234-3.367v-4.71a1.4,1.4,0,0,0-2.794,0v4.423h-2.793V1607.84h2.793v4.519a1.4,1.4,0,0,0,2.794,0v-4.806a3.66,3.66,0,0,0,2.234-3.368v-2.211h.838a1.4,1.4,0,0,0,1.4-1.4v-5.307h.14a1.4,1.4,0,0,0,.627-2.644l-32.82-16.48a1.4,1.4,0,0,0-1.254,0l-32.819,16.48a1.4,1.4,0,0,0,.627,2.644h.139v5.307a1.4,1.4,0,0,0,1.4,1.4h.838v2.211a3.66,3.66,0,0,0,2.235,3.368v20.406a3.659,3.659,0,0,0-2.235,3.367v2.212h-.838a1.4,1.4,0,0,0-1.4,1.4v4.189H298.9a1.4,1.4,0,0,0-1.4,1.4v5.587a1.4,1.4,0,0,0,1.4,1.4h68.713a1.4,1.4,0,0,0,1.4-1.4v-5.587A1.4,1.4,0,0,0,367.617,1639.124Zm-7.566-8.659a.862.862,0,0,1,.861.861v2.212H353.65v-2.212a.862.862,0,0,1,.861-.861Zm-12.36,3.073v-2.212a3.66,3.66,0,0,0-2.235-3.367v-20.406a3.66,3.66,0,0,0,2.235-3.368v-2.211h3.166v2.211a3.66,3.66,0,0,0,2.235,3.368v20.406a3.66,3.66,0,0,0-2.235,3.367v2.212Zm-16.014,0v-2.212a3.66,3.66,0,0,0-2.234-3.367v-20.406a3.66,3.66,0,0,0,2.234-3.368v-2.211h3.167v2.211a3.66,3.66,0,0,0,2.234,3.368v20.406a3.66,3.66,0,0,0-2.234,3.367v2.212Zm-16.014,0v-2.212a3.659,3.659,0,0,0-2.235-3.367v-20.406a3.66,3.66,0,0,0,2.235-3.368v-2.211h3.166v2.211a3.66,3.66,0,0,0,2.235,3.368v20.406a3.66,3.66,0,0,0-2.235,3.367v2.212Zm-7.821-25.7h2.793v19.832h-2.793Zm16.014,0h2.793v19.832h-2.793Zm5.028-3.655a.862.862,0,0,1-.861.862h-5.54a.863.863,0,0,1-.861-.862v-2.211h7.262v2.211Zm-7.262,27.141a.862.862,0,0,1,.861-.861h5.54a.862.862,0,0,1,.861.861v2.212h-7.262Zm18.249-23.486h2.793v19.832h-2.793Zm5.028-3.655a.863.863,0,0,1-.861.862H338.5a.863.863,0,0,1-.861-.862v-2.211H344.9Zm-7.262,27.141a.862.862,0,0,1,.861-.861h5.54a.863.863,0,0,1,.861.861v2.212h-7.262v-2.212Zm23.277-27.141a.863.863,0,0,1-.861.862h-5.54a.863.863,0,0,1-.861-.862v-2.211h7.262Zm-34.589-8.915a1.4,1.4,0,1,0,0-2.793h-19.99l26.926-13.52,26.927,13.52H340.663a1.4,1.4,0,1,0,0,2.793h22.485v3.91H303.373v-3.91Zm-13.454,6.7v2.211a.863.863,0,0,1-.861.862h-5.54a.863.863,0,0,1-.861-.862v-2.211Zm-7.262,29.351a.862.862,0,0,1,.861-.861h5.54a.862.862,0,0,1,.861.861v2.212h-7.262Zm-2.235,5h59.775v2.793H303.373Zm62.847,8.38H300.3v-2.794H366.22Z" transform="translate(-297.508 -1575.998)"/>
</svg>
