<svg id="Group_6" data-name="Group 6" xmlns="http://www.w3.org/2000/svg" width="514.692" height="457.681" viewBox="0 0 514.692 457.681">
  <g id="Group_67" data-name="Group 67" transform="translate(0 0.305)">
    <g id="Group_3" data-name="Group 3" transform="translate(45.004 290.1)">
      <g id="Group_2" data-name="Group 2">
        <path id="Path_16" data-name="Path 16" d="M1202.4,639.655l5.917-3.005,2.361,4.649,31.761-16.131-2.362-4.649,5.917-3.006,8.71,17.149-5.917,3.005-2.361-4.649-10.989,5.582,7.912,15.578,10.989-5.582-2.361-4.649,5.917-3.006,8.71,17.149-5.918,3.005-2.362-4.649-31.76,16.131,2.362,4.649-5.917,3.005-8.71-17.148,5.917-3.005,2.362,4.649,13.888-7.054-7.913-15.578-13.888,7.054,2.362,4.649-5.918,3.005Z" transform="translate(-1202.404 -617.513)"/>
        <path id="Path_17" data-name="Path 17" d="M1253.849,720l4.549-4.832,3.8,3.575,24.419-25.935-3.8-3.575,4.549-4.832,27.415,25.812-8.868,9.417-5.67-5.339,4.317-4.585-11.538-10.864-8.449,8.973,9.911,9.332-5.293,5.62-9.91-9.331-10.677,11.34,11.537,10.864,5.478-5.818,5.671,5.339-10.028,10.65Z" transform="translate(-1209.665 -626.954)"/>
        <path id="Path_18" data-name="Path 18" d="M1322.7,773.23l2.81-6.013,4.97,2.322,15.083-32.271-4.97-2.322,2.81-6.013,18.344,8.573-2.81,6.013-5.4-2.523-15.083,32.271,10.553,4.932,3.326-7.117,7.056,3.3-6.136,13.13Z" transform="translate(-1219.383 -633.239)"/>
        <path id="Path_19" data-name="Path 19" d="M1400.305,801.416l.77-6.592,5.315.621,4.136-35.381-5.314-.621.771-6.592,18.43,2.155a26.545,26.545,0,0,1,12.551,4.911q5.5,4.017,4.481,12.695-.92,7.87-5.857,10.737a19.766,19.766,0,0,1-10.449,2.766c-.409,0-.839-.018-1.29-.049s-.878-.069-1.282-.115l-6.121-.715-1.313,11.233,6.188.723-.77,6.593Zm16.921-22.84,2.22.259a.27.27,0,0,0,.193.091l.337.039a1.5,1.5,0,0,0,.463.122l.605.07q.873.1,2.064.14a11.518,11.518,0,0,0,2.513-.218,10.374,10.374,0,0,0,4.5-2q2.13-1.591,2.586-5.493.471-4.035-1.262-6.113a10.446,10.446,0,0,0-4.01-3.026,13.288,13.288,0,0,0-2.337-.716q-1.166-.238-2.04-.341l-.605-.07-.471-.056a1.8,1.8,0,0,1-.411.021l-.27-.032-2.01-.3Z" transform="translate(-1230.337 -636.615)"/>
        <path id="Path_20" data-name="Path 20" d="M1486.5,803.743l-1.316-6.5,5.376-1.088-7.062-34.915-5.377,1.087-1.316-6.505,19.847-4.014,1.316,6.505-5.841,1.181,7.063,34.916,11.417-2.31-1.558-7.7,7.633-1.544,2.874,14.2Z" transform="translate(-1241.135 -636.467)"/>
        <path id="Path_21" data-name="Path 21" d="M1562.136,780.912l-3.026-5.907,4.58-2.346-16.243-31.7-4.58,2.347-3.027-5.907,16.877-8.647,3.027,5.907-4.46,2.285,16.242,31.7,4.461-2.285,3.026,5.906Z" transform="translate(-1250.032 -633.214)"/>
        <path id="Path_22" data-name="Path 22" d="M1599.7,709.246l-.1.094,21.361,21.927,3.929-3.828,4.631,4.754-13,12.665-4.63-4.754,3.25-3.167-24.859-25.515-3.25,3.167-4.632-4.754,11.5-11.2,32.187,10.716.1-.094-16.4-16.834-3.589,3.5-4.632-4.753,13.049-12.713,4.632,4.754-3.638,3.545,29.489,30.269L1640,721.983Z" transform="translate(-1256.039 -626.115)"/>
        <path id="Path_23" data-name="Path 23" d="M1678,673.447l-5.968-2.9,2.28-4.69-32.034-15.579-2.281,4.689-5.968-2.9,16.467-33.862,11.632,5.657-3.405,7-5.664-2.753-6.93,14.251,11.084,5.39,5.953-12.241,6.943,3.376-5.954,12.241,14.008,6.812,6.93-14.251-7.186-3.5,3.406-7,13.155,6.4Z" transform="translate(-1263.326 -617.61)"/>
      </g>
    </g>
    <g id="Group_5" data-name="Group 5" transform="translate(210.225 256.133)">
      <g id="Group_4" data-name="Group 4">
        <path id="Path_25" data-name="Path 25" d="M1470.572,632.582,1491,612.154l-27.173-27.173a23.96,23.96,0,0,0-33.884,0l-3.485,3.485Z" transform="translate(-1399.249 -577.964)" fill="#273c8b"/>
        <path id="Path_26" data-name="Path 26" d="M1416.467,596.617h0l-20.427,20.427h0L1444.4,665.4l-5.522,5.514L1415.2,647.244l-20.427,20.427,27.173,27.173a23.959,23.959,0,0,0,33.884,0l3.485-3.486-.019-.019,5.522-5.513.015.015h0l20.427-20.428h0Z" transform="translate(-1394.778 -580.596)" fill="#de2726"/>
      </g>
    </g>
  </g>
  <g id="Group_66" data-name="Group 66">
    <path id="Path_1" data-name="Path 1" d="M1717.34,492.891l-11.373,19.7h4.979l-10.408,18.026h6.873l-7.922,13.72c16.609,0,26.25,9.254,42.766,12.232l-14.984-25.952h6.872l-10.408-18.026h4.98Z" transform="translate(-1227.561 -309.823)" fill="#273c8b" fill-rule="evenodd"/>
    <path id="Path_2" data-name="Path 2" d="M1679.726,456.529,1666.4,479.615h5.836l-12.2,21.127h8.054l-17.559,30.413h58.394l-17.559-30.413h8.053l-12.2-21.127h5.836Z" transform="translate(-1220.651 -304.69)" fill="#273c8b" fill-rule="evenodd"/>
    <path id="Path_3" data-name="Path 3" d="M1637.432,450.863l-11.374,19.7h4.98l-10.409,18.026h6.873l-14.984,25.951h49.827l-14.983-25.951h6.872l-10.408-18.026h4.98Z" transform="translate(-1215.286 -303.891)" fill="#273c8b" fill-rule="evenodd"/>
    <path id="Path_4" data-name="Path 4" d="M1174.918,498.356l11.373,19.7h-4.98l10.408,18.026h-6.872l7.921,13.72c-16.609,0-26.249,9.254-42.765,12.231l14.984-25.951h-6.873l10.408-18.026h-4.98Z" transform="translate(-1150.004 -310.594)" fill="#273c8b" fill-rule="evenodd"/>
    <path id="Path_5" data-name="Path 5" d="M1209.964,461.994l13.329,23.086h-5.835l12.2,21.127H1221.6l17.559,30.413h-58.393l17.559-30.413h-8.054l12.2-21.127h-5.835Z" transform="translate(-1154.346 -305.462)" fill="#273c8b" fill-rule="evenodd"/>
    <path id="Path_6" data-name="Path 6" d="M1253.666,456.328l11.373,19.7h-4.979l10.408,18.026H1263.6L1278.578,520h-49.826l14.984-25.951h-6.873l10.408-18.026h-4.98Z" transform="translate(-1161.119 -304.662)" fill="#273c8b" fill-rule="evenodd"/>
    <g id="Group_1" data-name="Group 1" transform="translate(40.952)">
      <path id="Path_7" data-name="Path 7" d="M1233.958,432.194l-4.924-4.451,3.5-3.868-26.426-23.888-3.5,3.868-4.923-4.451,25.25-27.933,9.6,8.674-5.223,5.778-4.672-4.224-10.627,11.756,9.144,8.266,9.128-10.1,5.727,5.177-9.128,10.1,11.555,10.445,10.626-11.755-5.928-5.359,5.223-5.777,10.852,9.81Z" transform="translate(-1197.686 -292.685)"/>
      <path id="Path_8" data-name="Path 8" d="M1266.475,398.457l-4.018-5.283,3.181-2.419-11.861-35.733-4.258,3.239-4.018-5.284,20.107-15.29,4.017,5.283-4.2,3.2,31,21.18,2.965-2.255,4.017,5.283-14.339,10.9L1285.044,376l4.258-3.238-8.421-5.592-11.806,8.978,3.139,9.609,4.2-3.2,4.018,5.282Zm9.041-35.548-14.37-9.832-.107.082,5.528,16.556Z" transform="translate(-1204.435 -287.916)"/>
      <path id="Path_9" data-name="Path 9" d="M1311.947,346.91a13.242,13.242,0,0,0,6.905,5.481,10.9,10.9,0,0,0,8.6-.818,7.321,7.321,0,0,0,3.709-4.165,6.73,6.73,0,0,0-.318-5.558q-1.636-3.271-3.983-3.649a17.024,17.024,0,0,0-5.86.319q-1.364.3-2.877.605t-3.18.606q-.7.122-2.528.545a16.043,16.043,0,0,1-4.225.333,14.907,14.907,0,0,1-6.043-1.786q-3.165-1.635-5.5-6.3a11.159,11.159,0,0,1-.849-2.453,14.285,14.285,0,0,1-.363-3,15.712,15.712,0,0,1,1.817-7.117q1.847-3.724,7-6.3a13.7,13.7,0,0,1,5.376-1.439,15.068,15.068,0,0,1,5.436.652l-1.393-2.787,6.36-3.18,6.543,13.084-6.058,3.029a13.885,13.885,0,0,0-2.695-2.589,10.359,10.359,0,0,0-3.089-1.56,9.432,9.432,0,0,0-3.483-.379,9.688,9.688,0,0,0-3.6,1.045,7.083,7.083,0,0,0-3.619,3.74,6.247,6.247,0,0,0,.47,5.254,4.21,4.21,0,0,0,4.118,2.407,35.5,35.5,0,0,0,6.694-.772q1.029-.211,2.165-.439t2.256-.41a32.3,32.3,0,0,1,10.025-.242q4.876.667,8.419,7.753a14.333,14.333,0,0,1,.97,11.782,15.59,15.59,0,0,1-8.086,8.662,21.881,21.881,0,0,1-6.209,2.044,16.706,16.706,0,0,1-6.511-.227l1.332,2.665-6.36,3.18-7.481-14.961Z" transform="translate(-1211.484 -283.571)"/>
      <path id="Path_10" data-name="Path 10" d="M1343.463,311.779l-3.933-13.1,35.157-10.551,3.933,13.1-7.46,2.238-2.024-6.745-5.9,1.771,10.24,34.119,5.643-1.694,1.908,6.357-19.719,5.917-1.908-6.356,5.644-1.694-10.24-34.119-5.9,1.772,2.024,6.745Z" transform="translate(-1217.707 -280.921)"/>
      <path id="Path_11" data-name="Path 11" d="M1398.46,333.347l-.793-6.589,5.178-.624-4.255-35.367-5.177.623-.794-6.589L1430,280.3l1.544,12.842-7.731.93-.752-6.252-15.734,1.892,1.472,12.238,13.515-1.626.922,7.665-13.514,1.626,1.86,15.465,15.733-1.893-.954-7.934,7.732-.931,1.748,14.524Z" transform="translate(-1225.2 -279.817)"/>
      <path id="Path_12" data-name="Path 12" d="M1445.1,328.553l.379-6.626,5.206.3,2.036-35.564-5.206-.3.379-6.626,20.96,1.2a1.26,1.26,0,0,0,.4.091l.405.023q1.485.085,3.612.308a15.483,15.483,0,0,1,4.244,1.092,16.16,16.16,0,0,1,3.251,1.882,11.837,11.837,0,0,1,2.842,3.079c.082.141.165.271.249.387a1.909,1.909,0,0,1,.186.316,8.283,8.283,0,0,1,1.282,3.668q.1,1.7.07,2.311l0,.067a11.423,11.423,0,0,1-2.285,6.755,13.233,13.233,0,0,1-5.989,3.9l0,.068q3.329,1.072,4.416,2.83a7.62,7.62,0,0,1,1.181,3.663,5.24,5.24,0,0,1,.02.849q-.026.439-.048.845l-.627,10.953,4.732.271-.379,6.626-13.523-.774.978-17.106a3.778,3.778,0,0,0-1.683-3.759,10.81,10.81,0,0,0-4.122-1.457c-.4-.068-.807-.125-1.212-.171s-.808-.08-1.214-.1l-5.273-.3-.886,15.483,5.409.309-.38,6.626Zm15.643-28,5.681.325a16.942,16.942,0,0,0,6.759-.772q3.112-1.049,3.4-6.009.206-3.6-2.163-4.862a14.391,14.391,0,0,0-5.337-1.567q-.741-.109-1.483-.153l-1.42-.082-4.665-.267Z" transform="translate(-1232.607 -279.737)"/>
      <path id="Path_13" data-name="Path 13" d="M1517.188,298.831l-.131-.033-7.624,29.646,5.313,1.366-1.653,6.428-17.577-4.521,1.652-6.428,4.395,1.13,8.873-34.5-4.395-1.13,1.653-6.428,15.544,4,7.579,33.067.131.034,5.853-22.76-4.853-1.248,1.653-6.428,17.643,4.538-1.652,6.427-4.92-1.265-10.526,40.927-6.886-1.771Z" transform="translate(-1239.723 -280.39)"/>
      <path id="Path_14" data-name="Path 14" d="M1593.371,310.556l14.306,9.054-3.55,5.608-3.89-2.463-7.667,27.689.115.072,21.228-19.1-3.719-2.354,3.55-5.608,14.706,9.308-3.55,5.608-3.776-2.391-7.781,27.616.114.073,21.514-18.923-3.834-2.427,3.549-5.607,13.62,8.619-3.549,5.608-3.033-1.92-33.816,28.609-5.092-3.224,8.091-30.385-.114-.072-23.656,20.534-5.093-3.223,10.812-43.169-3.033-1.92Z" transform="translate(-1251.936 -284.087)"/>
      <path id="Path_15" data-name="Path 15" d="M1627.972,395.9l4.781-4.6,2.772,2.879,34.115-15.927-3.711-3.854,4.781-4.6,17.521,18.2-4.78,4.6-3.664-3.806-17.44,33.245,2.583,2.683-4.781,4.6-12.5-12.976,4.781-4.6,3.711,3.854,4.577-9.014-10.287-10.683-9.18,4.232,3.664,3.806-4.78,4.6Zm36.357,4.855,8.1-15.414-.094-.1-15.8,7.412Z" transform="translate(-1258.419 -292.447)"/>
    </g>
    <path id="Path_24" data-name="Path 24" d="M1392.345,384.095q1.117,20.187,2.233,40.375a30.2,30.2,0,0,0-5.826,5.978c-2.747,3.79-4.575,9.328-10.64,8.546-2.455-.314-12.495,11.271-14.84,13.616l-23.118-16.7ZM1664.7,536.482c-27.013-27.012-32.437-23.8-65.9-39.584-10.247-4.833-14.942-15.231-24.687-19.2-18.464-7.531-22.639-13.645-33.646-27.736-8.7-11.133-25.585-20.422-37.456-28.65q-4.465-9.769-8.931-19.536l-25.118-13.583-19.444,11.163,2.884,4.931,11.163-6.7,2.7-.93q.977-.977,1.953-1.954l2.7,4.373-1.489,1.488-1.72-1.721-1.582,1.581q-1.93,5.605-3.861,11.211l-49.492,41.119q3.092-8.675,6.186-17.351l20-26.42q3.164-7.3,6.326-14.606c-3.616-7.424-9.843-12.237-19.165-13.955l-14.7-15.444-18.327,8.094c-10.246,10.721-19.873,17.044-31.816,25.767l-4,.465-25.583,23.723-10.978-6.234c-16.865,14.342-32.977,29.931-51.979,41.358-21.872,13.154-32.816,21.846-51.378,46.741L1150,541.176h10.606l99.542-10.978,16.559-7.07,47.073-37.026v2.232l-32,29.77v13.21l-11.722,8.373h9.861c8.828-2.406,16.912-2.93,23.63,0l69.772-43.538,16.56-7.443q25.119-16.931,50.236-33.863.28,6.512.558,13.025l-27.909,53.771,8.932,3.536,45.4,5.4,40.933-26.048q1.21,16.466,2.418,32.933Z" transform="translate(-1150.004 -291.769)" fill="#de2726" fill-rule="evenodd"/>
  </g>
</svg>
